<?xml version="1.0" standalone="no"?><!DOCTYPE svg PUBLIC "-//W3C//DTD SVG 1.1//EN" "http://www.w3.org/Graphics/SVG/1.1/DTD/svg11.dtd"><svg t="1576579747178" class="icon" viewBox="0 0 1024 1024" version="1.1" xmlns="http://www.w3.org/2000/svg" p-id="3452" xmlns:xlink="http://www.w3.org/1999/xlink" width="200" height="200"><defs><style type="text/css"></style></defs><path d="M704 773.973c0 7.918-6.418 14.336-14.336 14.336h-355.328c-7.918 0-14.336-6.418-14.336-14.336v-481.28c0-7.918 6.418-14.336 14.336-14.336h355.328c7.918 0 14.336 6.418 14.336 14.336v481.28z" fill="#E60012" p-id="3453"></path><path d="M689.664 791.381h-355.328c-9.599 0-17.408-7.809-17.408-17.408v-481.28c0-9.599 7.809-17.408 17.408-17.408h355.328c9.599 0 17.408 7.809 17.408 17.408v481.28c0 9.599-7.809 17.408-17.408 17.408zM334.336 281.429c-6.211 0-11.264 5.053-11.264 11.264v481.28c0 6.211 5.053 11.264 11.264 11.264h355.328c6.211 0 11.264-5.053 11.264-11.264v-481.28c0-6.211-5.053-11.264-11.264-11.264h-355.328z" fill="" p-id="3454"></path><path d="M512 420.693c-49.496 0-96.078-8.127-131.163-22.884-35.929-15.112-55.717-35.533-55.717-57.5 0-1.697 1.375-3.072 3.072-3.072 1.697 0 3.072 1.375 3.072 3.072 0 19.335 18.451 37.744 51.955 51.836 34.349 14.448 80.084 22.404 128.781 22.404 48.697 0 94.432-7.956 128.781-22.404 33.504-14.092 51.955-32.501 51.955-51.836 0-1.697 1.375-3.072 3.072-3.072 1.697 0 3.072 1.375 3.072 3.072 0 21.967-19.787 42.387-55.717 57.5-35.085 14.757-81.667 22.884-131.163 22.884z" fill="" p-id="3455"></path><path d="M528.581 583.19v5.22h22.824c3.479 0 6.703 1.33 9.672 3.992 2.968 2.661 4.536 6.414 4.708 11.258 0.169 4.845-1.28 8.699-4.35 11.565-3.071 2.866-6.415 4.299-10.030 4.299h-22.824v14.329c0 3.956-1.52 7.897-4.555 11.821-3.037 3.923-7.591 6.003-13.663 6.243-6.074 0.238-10.662-1.673-13.766-5.731-3.106-4.061-4.657-8.172-4.657-12.333v-14.329h-22.414c-3.48 0-6.773-1.398-9.878-4.196-3.106-2.797-4.623-6.584-4.555-11.361 0-4.435 1.5-8.137 4.504-11.105 3.001-2.968 6.311-4.452 9.928-4.452h22.414v-5.22h-22.414c-3.549 0-6.875-1.415-9.979-4.247-3.106-2.831-4.623-6.602-4.555-11.31 0-4.503 1.518-8.101 4.555-10.798 3.035-2.694 6.361-4.042 9.979-4.042h19.036l-38.688-44.931c-2.389-2.661-3.736-6.328-4.043-11.003-0.307-4.673 1.705-8.784 6.039-12.333 4.333-3.547 8.716-4.708 13.152-3.48 4.435 1.228 7.778 3.139 10.030 5.731l36.231 42.884 35.003-43.601c1.91-2.388 5.1-4.333 9.57-5.834 4.468-1.5 8.971-0.307 13.51 3.582 4.537 3.889 6.55 8.154 6.038 12.794-0.511 4.641-1.826 8.188-3.94 10.644l-38.995 45.545h18.935c3.547 0 6.857 1.365 9.927 4.094 3.071 2.729 4.622 6.38 4.657 10.951 0.034 4.572-1.535 8.274-4.708 11.105-3.173 2.832-6.465 4.247-9.876 4.247h-22.821z" fill="#FAEE00" p-id="3456"></path></svg>