<?xml version="1.0" standalone="no"?><!DOCTYPE svg PUBLIC "-//W3C//DTD SVG 1.1//EN" "http://www.w3.org/Graphics/SVG/1.1/DTD/svg11.dtd"><svg t="1576589473521" class="icon" viewBox="0 0 1024 1024" version="1.1" xmlns="http://www.w3.org/2000/svg" p-id="7174" xmlns:xlink="http://www.w3.org/1999/xlink" width="200" height="200"><defs><style type="text/css"></style></defs><path d="M835.64170347 302.26291307c-7.475472 13.25547627-24.19895147 17.8024128-37.37736 10.3269408l-86.931264 150.28010986c-12.0994752 21.270416-11.48294187 47.78136853 0.53946666 69.66831787 34.52589227 59.2643104 37.37736107 134.6355648 0.53946774 199.1404128L641.74182827 844.65850987c-69.05178347-7.475472-132.94009707-23.58241707-188.73640534-47.78136747-2.31200213-1.15600107-4.00746987-1.69546773-6.31947093-2.31200213-66.7397824-28.745888-145.57904-47.16483413-231.35430293-50.0933696-10.3269408-1.15600107-20.73094827-1.15600107-31.05788907-1.15600107-4.00746987 0-7.475472 0-11.48294187 0.53946667l-3.46800213-2.31200107 144.34597227-240.216976c39.68936213-69.05178347 113.9816832-104.7336768 188.1969376-99.57020693 26.51095253 2.31200213 52.40537173-10.3269408 65.58378133-33.3698912l81.6907264-142.18810347c-12.63894293-7.475472-17.26294613-24.19895147-9.78747413-37.37736107 7.475472-13.25547627 24.19895147-17.26294613 37.37736106-9.78747413L825.31476267 264.885552c13.25547627 7.475472 17.8024128 24.19895147 10.3269408 37.37736107zM789.47873707 223.50072213L734.22189653 191.518032c-9.0168064-5.2405376-12.0994752-16.7234784-6.85893866-25.74028587l36.22136-62.73231253c5.2405376-9.0168064 16.7234784-12.0994752 25.7402848-6.85893867l85.77526293 49.47683627c12.02240853 6.93600533 12.63894293 24.1218848 1.15600107 31.90562347l-66.66271574 45.16109973c-6.08827093 4.08453653-13.79494293 4.31573653-20.11441386 0.77066773z" fill="#1afa29" p-id="7175"></path><path d="M975.36367253 842.03824213c-85.46699627 70.82431893-217.6364256 115.67715093-363.75493333 115.67715094-10.0957408 0-20.26854827 0-30.364288-1.15600107-1.69546773 0-3.9304032 0-5.62587093-0.53946667-49.47683627-1.69546773-96.71873707-9.2480064-140.03023574-21.270416-41.61603093-10.9434752-79.84112533-26.51095253-114.67528426-44.31336533-3.39093547-2.31200213-7.86080533-4.6240032-12.9472096-6.93600533-75.91072213-40.8453632-173.16892693-65.58378133-277.7484704-67.35631574 37.68562773-8.63147307 77.0667232-13.25547627 117.52675306-14.950944 9.0168064-0.53946667 17.95654613-0.53946667 26.97335254-0.53946773 10.0957408 0 20.26854827 0 30.36428906 1.15600107 2.23493547 0 3.9304032 0 6.1653376 0.53946666 81.53659307 3.46800213 156.29131413 21.270416 219.87136107 49.47683627 2.23493547 0.53946667 3.9304032 1.15600107 6.16533867 2.31200213 50.63283733 22.426416 107.97047893 37.9938944 169.7779904 46.00883414 28.1293536 3.46800213 56.79817493 5.16347093 86.62299733 5.16346986 53.94670613 0 106.2750112-6.31947093 155.21237973-17.8024128 46.00883413-10.9434752 88.78086507-26.51095253 126.4664928-45.4693664z" fill="#1afa29" p-id="7176"></path></svg>